<svg id="Слой_1" data-name="Слой 1" xmlns="http://www.w3.org/2000/svg" viewBox="0 0 249.81 56.69"><defs><style>.cls-1{fill:#4d008c;}.cls-2{fill:#aeb4ce;}</style></defs><path class="cls-1" d="M28.92,56.69a1.78,1.78,0,0,1,0-3.56,1.78,1.78,0,1,1,0,3.56M41.6,52.77a1.43,1.43,0,1,0,0-2.85,1.43,1.43,0,0,0,0,2.85m9.47-8.93a1.78,1.78,0,1,0-1.77-1.77,1.75,1.75,0,0,0,1.77,1.77m3.37-12.52a2.14,2.14,0,1,0,0-4.27,2.14,2.14,0,0,0,0,4.27M51.61,18.74a2.5,2.5,0,1,0,0-5,2.5,2.5,0,0,0,0,5m-10-9a2.85,2.85,0,1,0,0-5.69A2.81,2.81,0,0,0,38.76,6.9a2.8,2.8,0,0,0,2.83,2.84M28.91,6.41a3.22,3.22,0,0,0,3.23-3.2A3.22,3.22,0,0,0,28.91,0a3.16,3.16,0,0,0-3.18,3.21,3.16,3.16,0,0,0,3.18,3.2m-13.29,4.4a3.92,3.92,0,1,0,0-7.83A3.86,3.86,0,0,0,11.73,6.9a3.86,3.86,0,0,0,3.89,3.91M6,19.45A3.21,3.21,0,1,0,6,13a3.21,3.21,0,0,0,0,6.41M2.83,32a2.85,2.85,0,1,0,0-5.7,2.85,2.85,0,0,0,0,5.7M6.43,44.5a2.49,2.49,0,1,0,0-5,2.49,2.49,0,0,0,0,5m9.2,9.09a2.14,2.14,0,1,0,0-4.28,2.14,2.14,0,0,0,0,4.28M33.38,38.41a1.78,1.78,0,1,0,0-3.56,1.78,1.78,0,0,0,0,3.56m4.34-7.13a2.14,2.14,0,1,0,0-4.27,2.14,2.14,0,0,0,0,4.27m-4.35-7.19a2.49,2.49,0,1,0,0-5,2.49,2.49,0,0,0,0,5m-8.72.36a2.85,2.85,0,1,0,0-5.7,2.85,2.85,0,0,0,0,5.7m4.27,7.18a2.49,2.49,0,1,0,0-5,2.49,2.49,0,0,0,0,5m-8.53,0a2.49,2.49,0,1,0,0-5,2.49,2.49,0,0,0,0,5m4.35,7.22a2.14,2.14,0,1,0,0-4.27,2.14,2.14,0,0,0,0,4.27m-.35,8.58a1.78,1.78,0,1,0,0-3.56,1.78,1.78,0,0,0,0,3.56M17.08,43.3a2.14,2.14,0,1,0,0-4.27,2.14,2.14,0,0,0,0,4.27M12.45,36a2.49,2.49,0,1,0,0-5,2.49,2.49,0,0,0,0,5m0-8.51a2.85,2.85,0,1,0,0-5.69,2.85,2.85,0,0,0,0,5.69m4.1-7.14a3.2,3.2,0,1,0,0-6.4,3.2,3.2,0,0,0,0,6.4M24.42,16a3.21,3.21,0,1,0,0-6.41,3.21,3.21,0,0,0,0,6.41m9-.36a2.85,2.85,0,1,0,0-5.69,2.85,2.85,0,0,0,0,5.69m8.06,3.93a2.5,2.5,0,1,0,0-5,2.5,2.5,0,0,0,0,5m3.86,7.13a2.14,2.14,0,1,0,0-4.27,2.14,2.14,0,0,0,0,4.27m-.08,8.56a1.78,1.78,0,1,0,0-3.56,1.78,1.78,0,0,0,0,3.56m-4.38,7.32a1.43,1.43,0,1,0,0-2.85,1.43,1.43,0,0,0,0,2.85M33.4,47.07a1.43,1.43,0,1,0,0-2.85,1.43,1.43,0,0,0,0,2.85"/><path class="cls-2" d="M68.62,45.48a5.45,5.45,0,1,1,5.44,5.44A5.41,5.41,0,0,1,68.62,45.48Zm9.16,0a3.72,3.72,0,1,0-3.72,3.76A3.66,3.66,0,0,0,77.78,45.48Z"/><path class="cls-2" d="M80.83,47c0-2.42.46-3.66,2.88-4.85,1.58-.76,2.55-1,2.85-2.14l1.32.76c-.27,1.38-1.52,1.86-3,2.49-1.36.54-1.84,1-2.08,1.83a3.33,3.33,0,0,1,5.73,2.37,3.49,3.49,0,0,1-3.75,3.51A3.77,3.77,0,0,1,80.83,47Zm6,.46a2,2,0,0,0-2.13-2,2,2,0,1,0,0,4A2,2,0,0,0,86.86,47.41Z"/><path class="cls-2" d="M98.05,47a3.82,3.82,0,0,1-3.73,3.94,3.12,3.12,0,0,1-2.63-1.26v4.07H90.07V43.23h1.62v1.08A3.08,3.08,0,0,1,94.32,43,3.83,3.83,0,0,1,98.05,47Zm-1.62,0a2.37,2.37,0,1,0-2.37,2.4A2.31,2.31,0,0,0,96.43,47Z"/><path class="cls-2" d="M107.36,43.23v7.5h-1.62V49.65a3.08,3.08,0,0,1-2.62,1.27,4,4,0,0,1,0-7.89,3.1,3.1,0,0,1,2.62,1.26V43.23ZM105.74,47a2.37,2.37,0,1,0-2.37,2.4A2.31,2.31,0,0,0,105.74,47Z"/><path class="cls-2" d="M114.89,48.67c0,1.2-1,2.25-3,2.25a3,3,0,0,1-3.06-1.8l1.32-.78A1.68,1.68,0,0,0,112,49.47c.87,0,1.35-.41,1.35-1s-.39-.86-1.08-.86h-1.06V46.23H112c.68,0,1-.33,1-.87s-.45-.89-1.15-.89a1.59,1.59,0,0,0-1.56,1L109,44.71A3,3,0,0,1,111.82,43c1.74,0,2.74,1,2.74,2.19a1.85,1.85,0,0,1-.87,1.67A1.9,1.9,0,0,1,114.89,48.67Z"/><path class="cls-2" d="M116.06,47a4,4,0,1,1,4,3.94A3.92,3.92,0,0,1,116.06,47Zm6.3,0A2.34,2.34,0,1,0,120,49.35,2.3,2.3,0,0,0,122.36,47Z"/><path class="cls-2" d="M132,48.6c0,1.2-.83,2.13-2.46,2.13H125.7v-7.5h3.53c1.6,0,2.44.88,2.44,2.07a1.77,1.77,0,0,1-.79,1.57A1.83,1.83,0,0,1,132,48.6Zm-4.76-4v1.66h1.88c.64,0,1-.28,1-.84s-.35-.82-1-.82Zm3.16,3.82c0-.52-.37-.82-1-.82h-2.14v1.71h2.14C130,49.32,130.4,49,130.4,48.43Z"/><path class="cls-2" d="M141.18,43.23v7.5h-1.62V49.65a3.08,3.08,0,0,1-2.62,1.27,4,4,0,0,1,0-7.89,3.1,3.1,0,0,1,2.62,1.26V43.23ZM139.56,47a2.37,2.37,0,1,0-2.37,2.4A2.31,2.31,0,0,0,139.56,47Z"/><path class="cls-2" d="M149.06,44.79h-2.45v5.94H145V44.79h-2.46V43.23h6.53Z"/><path class="cls-2" d="M154.06,49.44a2.33,2.33,0,0,0,1.94-.93l1.33.78A3.78,3.78,0,0,1,154,50.92a3.95,3.95,0,1,1-.12-7.89,3.79,3.79,0,0,1,3.77,4,4.91,4.91,0,0,1-.06.68h-6A2.26,2.26,0,0,0,154.06,49.44Zm2-3.09a2.09,2.09,0,0,0-2.14-1.85,2.17,2.17,0,0,0-2.26,1.85Z"/><path class="cls-2" d="M165.74,50.73h-1.62V44.79h-2.5v2.79c0,2.46-1.16,3.33-3,3.15V49.21c.88.15,1.38-.3,1.38-1.71V43.23h5.74Z"/><path class="cls-2" d="M173.91,48.25a2.5,2.5,0,0,1-2.73,2.48h-3.26v-7.5h1.61v2.55h1.65A2.49,2.49,0,0,1,173.91,48.25Zm-1.59,0a1,1,0,0,0-1.12-1h-1.67v2h1.67A1,1,0,0,0,172.32,48.25Z"/><path class="cls-2" d="M182.08,43.23v7.5h-1.62v-3H177v3h-1.61v-7.5H177v3h3.44v-3Z"/><path class="cls-2" d="M190.24,48.25a2.5,2.5,0,0,1-2.73,2.48h-3.27v-7.5h1.62v2.55h1.65A2.49,2.49,0,0,1,190.24,48.25Zm-1.59,0a1,1,0,0,0-1.12-1h-1.67v2h1.67A1,1,0,0,0,188.65,48.25Zm4.11-5v7.5h-1.62v-7.5Z"/><path class="cls-2" d="M201.61,43.23v7.5H200V46l-3.84,4.77h-1.24v-7.5h1.59V48l3.84-4.75Zm-5.44-2.46h4.2v1.41h-4.2Z"/><path class="cls-2" d="M215.52,49.2v3.54h-1.59v-2h-6.09v-7.5h1.62v6h3.21v-6h1.62v6Z"/><path class="cls-2" d="M220.62,49.44a2.31,2.31,0,0,0,1.94-.93l1.33.78a3.78,3.78,0,0,1-3.28,1.63,3.95,3.95,0,1,1-.12-7.89,3.78,3.78,0,0,1,3.76,4,4.91,4.91,0,0,1-.06.68h-6A2.26,2.26,0,0,0,220.62,49.44Zm2-3.09a2.1,2.1,0,0,0-2.15-1.85,2.17,2.17,0,0,0-2.26,1.85Z"/><path class="cls-2" d="M232.62,43.23v7.5H231v-3h-3.43v3H226v-7.5h1.62v3H231v-3Z"/><path class="cls-2" d="M240.48,44.79H238v5.94h-1.62V44.79H234V43.23h6.52Z"/><path class="cls-2" d="M249.81,47a3.83,3.83,0,0,1-3.74,3.94,3.1,3.1,0,0,1-2.62-1.26v4.07h-1.62V43.23h1.62v1.08A3.06,3.06,0,0,1,246.07,43,3.84,3.84,0,0,1,249.81,47Zm-1.62,0a2.37,2.37,0,1,0-2.37,2.4A2.31,2.31,0,0,0,248.19,47Z"/><path class="cls-1" d="M168.94,24.16a8.72,8.72,0,0,1,8.92-8.89,8.35,8.35,0,0,1,7.53,4.36l-3.14,1.83a4.73,4.73,0,0,0-4.43-2.6,5.15,5.15,0,0,0-5.24,5.3,5.16,5.16,0,0,0,5.24,5.31,5,5,0,0,0,4.5-2.61l3.14,1.79a8.5,8.5,0,0,1-7.6,4.4,8.74,8.74,0,0,1-8.92-8.89m-1.3-8.45-6.48,17.44c-1.59,4.29-4.53,6.45-8.25,6.21V36c2.37.14,3.65-1,4.5-3.24l.1-.24-7.1-16.76h3.89L159.43,28l4.33-12.3Zm-20.11,0v16.9H144V22.15L136,32.61h-3.09V15.71h3.58v11l8.23-11ZM129.7,24.16a8.61,8.61,0,0,1-8.41,8.89,7,7,0,0,1-5.91-2.84v9.15h-3.65V15.71h2.47l1.18,2.44a7,7,0,0,1,5.91-2.88,8.63,8.63,0,0,1,8.41,8.89m-3.65,0a5.34,5.34,0,1,0-10.67,0,5.34,5.34,0,1,0,10.67,0M107.6,15.71v16.9H104V22.15L96.08,32.61H93V15.71h3.58v11l8.22-11ZM67.12,21.07A12,12,0,0,0,79.49,33.33a11.6,11.6,0,0,0,10.17-5.68l-3.38-1.92a7.54,7.54,0,0,1-6.79,3.82A8.12,8.12,0,0,1,71,21.07a8.12,8.12,0,0,1,8.48-8.48,7.56,7.56,0,0,1,6.79,3.81l3.38-2A11.68,11.68,0,0,0,79.49,8.8,12,12,0,0,0,67.12,21.07"/></svg>